<svg xmlns="http://www.w3.org/2000/svg" viewBox="0 0 64 64">
  <rect width="64" height="64" rx="14" fill="#06090F"/>
  <circle cx="32" cy="32" r="24" fill="#5B8CFF" opacity=".13"/>
  <svg x="17" y="4" width="30" height="56" viewBox="0 0 591.509461 1067.650498" preserveAspectRatio="xMidYMid meet">
    <linearGradient id="spectrum" x1="0" x2="1" y1="1" y2="0">
      <stop offset="0" stop-color="#2e5bd0"/>
      <stop offset=".22" stop-color="#5b8cff"/>
      <stop offset=".48" stop-color="#6e74f0"/>
      <stop offset=".72" stop-color="#a06cf0"/>
      <stop offset="1" stop-color="#c9a35e"/>
    </linearGradient>
    <path d="m1870 9093c-1378-2021-1382-2026-1462-2174-433-805-517-1735-233-2594 89-272 208-522 349-738 125-191 2440-3577 2445-3577 17 1 262 380 306 473 157 331 153 712-11 1033-23 46-129 211-235 367-106 155-506 741-889 1302s-715 1052-738 1090c-116 196-213 474-257 735-23 132-30 410-16 551 31 297 120 583 264 844 31 55 397 600 814 1212 577 846 761 1109 770 1100 25-26 1489-2178 1540-2265 217-368 326-828 294-1239-35-441-163-789-438-1186l-60-86-793 1167c-436 642-795 1169-796 1171-8 9-112-80-191-163-308-326-385-813-194-1221 32-69 612-929 1781-2643l193-283 25 38c14 21 251 369 527 773s533 788 573 852c450 737 594 1604 406 2446-75 338-228 712-406 997-63 100-2443 3593-2461 3612-9 9-274-373-1107-1594z" fill="url(#spectrum)" transform="matrix(.1 0 0 -.1 -.966644 1068.688621)"/>
  </svg>
</svg>
